<?xml version="1.0" encoding="utf-8"?>
<!-- Generator: Adobe Illustrator 17.1.0, SVG Export Plug-In . SVG Version: 6.00 Build 0)  -->
<!DOCTYPE svg PUBLIC "-//W3C//DTD SVG 1.1//EN" "http://www.w3.org/Graphics/SVG/1.1/DTD/svg11.dtd">
<svg version="1.1" id="Layer_1" xmlns="http://www.w3.org/2000/svg" xmlns:xlink="http://www.w3.org/1999/xlink" x="0px" y="0px"
	 width="59px" height="59px" viewBox="0 0 59 59" enable-background="new 0 0 59 59" xml:space="preserve">
<g>
	<g>
		<g>
			<path fill="#FFFFFF" d="M15.5,49.2l-2.4-2.4v2.4h-1.3v-5.1h0.5l2.4,2.4v-2.4H16v5.1H15.5z"/>
		</g>
		<g>
			<path fill="#FFFFFF" d="M18.7,47.2c0,0.4,0.3,0.7,0.7,0.7s0.7-0.3,0.7-0.7v-3.1h1.3v3.1c0,1.1-0.9,2-2,2c-1.1,0-2-0.9-2-2v-3.1
				h1.3L18.7,47.2L18.7,47.2z"/>
		</g>
		<g>
			<path fill="#FFFFFF" d="M25.3,46l2.1-1.9h0.6v5.1h-1.3v-2.6l-1.3,1.2l-1.3-1.2v2.6h-1.3v-5.1h0.6L25.3,46z"/>
		</g>
		<g>
			<path fill="#FFFFFF" d="M28.8,49.2l2.4-5.1h0.6l2.4,5.1h-1.3l-0.3-0.7h-2.1l-0.3,0.7H28.8z M30.9,47.4h1l-0.5-1.1L30.9,47.4z"/>
		</g>
		<g>
			<path fill="#FFFFFF" d="M35,44.1h1.9c1.4,0,2.5,1.1,2.5,2.5s-1.1,2.5-2.5,2.5H35L35,44.1L35,44.1z M36.3,47.9h0.6
				c0.7,0,1.2-0.5,1.2-1.2s-0.5-1.2-1.2-1.2h-0.6V47.9z"/>
		</g>
		<g>
			<path fill="#FFFFFF" d="M40.5,44.1h1.3v5.1h-1.3V44.1z"/>
		</g>
		<g>
			<path fill="#FFFFFF" d="M46.3,45.8c-0.2-0.2-0.5-0.3-0.9-0.3c-0.7,0-1.2,0.5-1.2,1.2s0.5,1.2,1.2,1.2c0.3,0,0.6-0.1,0.9-0.3
				l0.9,0.9c-0.5,0.5-1.1,0.8-1.8,0.8c-1.4,0-2.5-1.1-2.5-2.5s1.1-2.5,2.5-2.5c0.7,0,1.3,0.3,1.8,0.7L46.3,45.8z"/>
		</g>
	</g>
	<g>
		<g>
			<g>
				<path id="SVGID_90_" fill="#FFFFFF" d="M16.4,27.6c0.3,0,0.4-0.1,0.5-0.4L23.5,16c0.1-0.1,0.2-0.3,0-0.6l-2-3.5
					c-0.1-0.3-0.7-0.5-1,0l-8.6,14.9c-0.2,0.3,0,0.7,0.5,0.7H16.4z"/>
			</g>
			<g>
				<defs>
					<path id="SVGID_1_" d="M16.4,27.6c0.3,0,0.4-0.1,0.5-0.4L23.5,16c0.1-0.1,0.2-0.3,0-0.6l-2-3.5c-0.1-0.3-0.7-0.5-1,0l-8.6,14.9
						c-0.2,0.3,0,0.7,0.5,0.7H16.4z"/>
				</defs>
				<use xlink:href="#SVGID_1_"  overflow="visible" fill="#FFFFFF"/>
				<clipPath id="SVGID_2_">
					<use xlink:href="#SVGID_1_"  overflow="visible"/>
				</clipPath>
				<g clip-path="url(#SVGID_2_)">
					<rect x="12.5" y="9" fill="#FFFFFF" width="13.3" height="16.6"/>
				</g>
			</g>
		</g>
		<g>
			<g>
				<path id="SVGID_89_" fill="#FFFFFF" d="M27.3,19.5c0.2,0.3,0.6,0.4,0.9,0l2.1-3.6c0.1-0.2,0.1-0.3,0-0.5L27.1,10
					c-0.1-0.3-0.3-0.3-0.5-0.3h-4c-0.4,0-0.8,0.3-0.6,0.8L27.3,19.5z"/>
			</g>
			<g>
				<defs>
					<path id="SVGID_3_" d="M27.3,19.5c0.2,0.3,0.6,0.4,0.9,0l2.1-3.6c0.1-0.2,0.1-0.3,0-0.5L27.1,10c-0.1-0.3-0.3-0.3-0.5-0.3h-4
						c-0.4,0-0.8,0.3-0.6,0.8L27.3,19.5z"/>
				</defs>
				<use xlink:href="#SVGID_3_"  overflow="visible" fill="#FFFFFF"/>
				<clipPath id="SVGID_4_">
					<use xlink:href="#SVGID_3_"  overflow="visible"/>
				</clipPath>
				<g clip-path="url(#SVGID_4_)">
					<rect x="20.8" y="8.2" fill="#FFFFFF" width="10.4" height="13"/>
				</g>
			</g>
		</g>
		<g>
			<g>
				<path id="SVGID_88_" fill="#FFFFFF" d="M30.7,13.7c0.3,0.3,0.7,0.3,0.9,0l1.9-3.3c0.1-0.1,0.1-0.6-0.5-0.7l-3.7,0
					c-0.3,0-0.7,0.3-0.5,0.8L30.7,13.7z"/>
			</g>
			<g>
				<defs>
					<path id="SVGID_5_" d="M30.7,13.7c0.3,0.3,0.7,0.3,0.9,0l1.9-3.3c0.1-0.1,0.1-0.6-0.5-0.7l-3.7,0c-0.3,0-0.7,0.3-0.5,0.8
						L30.7,13.7z"/>
				</defs>
				<use xlink:href="#SVGID_5_"  overflow="visible" fill="#FFFFFF"/>
				<clipPath id="SVGID_6_">
					<use xlink:href="#SVGID_5_"  overflow="visible"/>
				</clipPath>
				<g clip-path="url(#SVGID_6_)">
					<rect x="27.5" y="8.1" fill="#FFFFFF" width="7.5" height="7.7"/>
				</g>
			</g>
		</g>
		<g>
			<g>
				<path id="SVGID_87_" fill="#FFFFFF" d="M27.2,23.5c0.3-0.3,0.7-0.3,0.9,0l1.9,3.3c0.1,0.1,0.1,0.6-0.5,0.7l-3.8,0
					c-0.3,0-0.7-0.3-0.5-0.8L27.2,23.5z"/>
			</g>
			<g>
				<defs>
					<path id="SVGID_7_" d="M27.2,23.5c0.3-0.3,0.7-0.3,0.9,0l1.9,3.3c0.1,0.1,0.1,0.6-0.5,0.7l-3.8,0c-0.3,0-0.7-0.3-0.5-0.8
						L27.2,23.5z"/>
				</defs>
				<use xlink:href="#SVGID_7_"  overflow="visible" fill="#FFFFFF"/>
				<clipPath id="SVGID_8_">
					<use xlink:href="#SVGID_7_"  overflow="visible"/>
				</clipPath>
				<g clip-path="url(#SVGID_8_)">
					<rect x="24.1" y="21.4" fill="#FFFFFF" width="7.5" height="7.7"/>
				</g>
			</g>
		</g>
		<g>
			<g>
				<path id="SVGID_86_" fill="#FFFFFF" d="M23.2,27.6c0.1,0,0.3-0.1,0.5-0.3l3.2-5.6c0.1-0.1,0.1-0.3,0-0.5l-2.1-3.6
					c-0.2-0.4-0.7-0.4-0.9,0l-5.3,9.2c-0.2,0.4,0,0.8,0.4,0.8L23.2,27.6z"/>
			</g>
			<g>
				<defs>
					<path id="SVGID_9_" d="M23.2,27.6c0.1,0,0.3-0.1,0.5-0.3l3.2-5.6c0.1-0.1,0.1-0.3,0-0.5l-2.1-3.6c-0.2-0.4-0.7-0.4-0.9,0
						l-5.3,9.2c-0.2,0.4,0,0.8,0.4,0.8L23.2,27.6z"/>
				</defs>
				<use xlink:href="#SVGID_9_"  overflow="visible" fill="#FFFFFF"/>
				<clipPath id="SVGID_10_">
					<use xlink:href="#SVGID_9_"  overflow="visible"/>
				</clipPath>
				<g clip-path="url(#SVGID_10_)">
					<rect x="19.5" y="15.8" fill="#FFFFFF" width="9.1" height="9.8"/>
				</g>
			</g>
		</g>
		<g>
			<g>
				<path id="SVGID_85_" fill="#FFFFFF" d="M42.2,9.6c-0.3,0-0.4,0.2-0.6,0.4l-6.4,11.1c-0.1,0.1-0.2,0.3,0,0.6l2,3.5
					c0.1,0.3,0.7,0.5,1,0l8.5-14.7c0.2-0.3,0-0.8-0.5-0.8H42.2z"/>
			</g>
			<g>
				<defs>
					<path id="SVGID_11_" d="M42.2,9.6c-0.3,0-0.4,0.2-0.6,0.4l-6.4,11.1c-0.1,0.1-0.2,0.3,0,0.6l2,3.5c0.1,0.3,0.7,0.5,1,0
						l8.5-14.7c0.2-0.3,0-0.8-0.5-0.8H42.2z"/>
				</defs>
				<use xlink:href="#SVGID_11_"  overflow="visible" fill="#FFFFFF"/>
				<clipPath id="SVGID_12_">
					<use xlink:href="#SVGID_11_"  overflow="visible"/>
				</clipPath>
				<g clip-path="url(#SVGID_12_)">
					<rect x="33" y="11.5" fill="#FFFFFF" width="13.3" height="16.6"/>
				</g>
			</g>
		</g>
		<g>
			<g>
				<path id="SVGID_84_" fill="#FFFFFF" d="M31.5,17.6c-0.2-0.3-0.6-0.4-0.9,0l-2.1,3.6c-0.1,0.2-0.1,0.3,0,0.5l3.3,5.7
					c0.2,0.2,0.3,0.2,0.5,0.2h4c0.3,0,0.7-0.3,0.5-0.8L31.5,17.6z"/>
			</g>
			<g>
				<defs>
					<path id="SVGID_13_" d="M31.5,17.6c-0.2-0.3-0.6-0.4-0.9,0l-2.1,3.6c-0.1,0.2-0.1,0.3,0,0.5l3.3,5.7c0.2,0.2,0.3,0.2,0.5,0.2h4
						c0.3,0,0.7-0.3,0.5-0.8L31.5,17.6z"/>
				</defs>
				<use xlink:href="#SVGID_13_"  overflow="visible" fill="#FFFFFF"/>
				<clipPath id="SVGID_14_">
					<use xlink:href="#SVGID_13_"  overflow="visible"/>
				</clipPath>
				<g clip-path="url(#SVGID_14_)">
					<rect x="27.6" y="15.8" fill="#FFFFFF" width="10.4" height="13"/>
				</g>
			</g>
		</g>
		<g>
			<g>
				<path id="SVGID_83_" fill="#FFFFFF" d="M35.5,9.6c-0.2,0-0.4,0.1-0.5,0.3l-3.1,5.4c-0.1,0.1-0.1,0.3,0,0.5l2.1,3.6
					c0.2,0.4,0.7,0.4,0.9,0l5.2-9.1c0.2-0.3,0-0.7-0.5-0.8L35.5,9.6L35.5,9.6z"/>
			</g>
			<g>
				<defs>
					<path id="SVGID_15_" d="M35.5,9.6c-0.2,0-0.4,0.1-0.5,0.3l-3.1,5.4c-0.1,0.1-0.1,0.3,0,0.5l2.1,3.6c0.2,0.4,0.7,0.4,0.9,0
						l5.2-9.1c0.2-0.3,0-0.7-0.5-0.8L35.5,9.6L35.5,9.6z"/>
				</defs>
				<use xlink:href="#SVGID_15_"  overflow="visible" fill="#FFFFFF"/>
				<clipPath id="SVGID_16_">
					<use xlink:href="#SVGID_15_"  overflow="visible"/>
				</clipPath>
				<g clip-path="url(#SVGID_16_)">
					<rect x="30.2" y="11.6" fill="#FFFFFF" width="9.1" height="9.8"/>
				</g>
			</g>
		</g>
		<g>
			<g>
				<g>
					<path id="SVGID_82_" fill="#FFFFFF" d="M40.7,23.6c0.3-0.3,0.7-0.3,0.9,0l1.9,3.3c0.1,0.1,0.1,0.6-0.5,0.7l-3.8,0
						c-0.3,0-0.7-0.3-0.5-0.8L40.7,23.6z"/>
				</g>
				<g>
					<defs>
						<path id="SVGID_17_" d="M40.7,23.6c0.3-0.3,0.7-0.3,0.9,0l1.9,3.3c0.1,0.1,0.1,0.6-0.5,0.7l-3.8,0c-0.3,0-0.7-0.3-0.5-0.8
							L40.7,23.6z"/>
					</defs>
					<use xlink:href="#SVGID_17_"  overflow="visible" fill="#FFFFFF"/>
					<clipPath id="SVGID_18_">
						<use xlink:href="#SVGID_17_"  overflow="visible"/>
					</clipPath>
					<g clip-path="url(#SVGID_18_)">
						<rect x="37.6" y="21.5" fill="#FFFFFF" width="7.5" height="7.7"/>
					</g>
				</g>
			</g>
			<g>
				<g>
					<path id="SVGID_81_" fill="#FFFFFF" d="M44.4,25.8c0.3,0.3,0.7,0.3,0.9,0l1.9-3.3c0.1-0.1,0.1-0.6-0.5-0.7l-3.8,0
						c-0.3,0-0.7,0.3-0.5,0.8L44.4,25.8z"/>
				</g>
				<g>
					<defs>
						<path id="SVGID_19_" d="M44.4,25.8c0.3,0.3,0.7,0.3,0.9,0l1.9-3.3c0.1-0.1,0.1-0.6-0.5-0.7l-3.8,0c-0.3,0-0.7,0.3-0.5,0.8
							L44.4,25.8z"/>
					</defs>
					<use xlink:href="#SVGID_19_"  overflow="visible" fill="#FFFFFF"/>
					<clipPath id="SVGID_20_">
						<use xlink:href="#SVGID_19_"  overflow="visible"/>
					</clipPath>
					<g clip-path="url(#SVGID_20_)">
						<rect x="41.2" y="20.2" fill="#FFFFFF" width="7.5" height="7.7"/>
					</g>
				</g>
			</g>
		</g>
	</g>
	<path fill="#FFFFFF" d="M0,0v59h59V0L0,0L0,0z M56.2,2.8v31.6H2.8V2.8L56.2,2.8z M2.8,56.2V37.3h53.3v18.9L2.8,56.2L2.8,56.2z"/>
</g>
</svg>
